<?xml version="1.0"?>
<svg xmlns="http://www.w3.org/2000/svg" version="1.1" width="754.7760620117188pt" height="637.2000122070312pt" viewBox="-128.48179133858267 -357.13125 754.7760826771653 637.2" preserveAspectRatio="none" xmlns:xlink="http://www.w3.org/1999/xlink">
  <defs>
  </defs>
  <path d="M222.75,-76.9393539428711 L237.89772033691406,-77.11861419677734 " stroke="#000000" fill="none" stroke-width="1" stroke-opacity="1" />
  <path d="M243.59732055664062,-77.18606567382812 L237.9239959716797,-74.89877319335938 L237.87144470214844,-79.33846282958984 L243.59732055664062,-77.18606567382812 " stroke="none" fill="#000000" fill-rule="evenodd" stroke-width="0" fill-opacity="1" />
  <path d="M243.59732055664062,-77.18606567382812 L237.9239959716797,-74.89877319335938 L237.87144470214844,-79.33846282958984 L243.59732055664062,-77.18606567382812 " stroke="#000000" fill="none" stroke-width="1" stroke-opacity="1" />
  <path d="M185.25,-100.125 L184.965087890625,-118.07475280761719 " stroke="#000000" fill="none" stroke-width="1" stroke-opacity="1" />
  <path d="M184.87461853027344,-123.77403259277344 L187.18479919433594,-118.1099853515625 L182.745361328125,-118.03952026367188 L184.87461853027344,-123.77403259277344 " stroke="none" fill="#000000" fill-rule="evenodd" stroke-width="0" fill-opacity="1" />
  <path d="M184.87461853027344,-123.77403259277344 L187.18479919433594,-118.1099853515625 L182.745361328125,-118.03952026367188 L184.87461853027344,-123.77403259277344 " stroke="#000000" fill="none" stroke-width="1" stroke-opacity="1" />
  <path d="M97.875,-55.125 L97.875,69.1875 " stroke="#000000" fill="none" stroke-width="1" stroke-opacity="1" />
  <path d="M97.875,69.1875 L254.17501831054688,69.62902069091797 " stroke="#000000" fill="none" stroke-width="1" stroke-opacity="1" />
  <path d="M259.875,69.64512634277344 L254.1687469482422,71.84901428222656 L254.18128967285156,67.4090347290039 L259.875,69.64512634277344 " stroke="none" fill="#000000" fill-rule="evenodd" stroke-width="0" fill-opacity="1" />
  <path d="M259.875,69.64512634277344 L254.1687469482422,71.84901428222656 L254.18128967285156,67.4090347290039 L259.875,69.64512634277344 " stroke="#000000" fill="none" stroke-width="1" stroke-opacity="1" />
  <path d="M295.77392578125,22.751646041870117 L296.23504638671875,40.426937103271484 " stroke="#000000" fill="none" stroke-width="1" stroke-opacity="1" />
  <path d="M296.3836975097656,46.124996185302734 L294.01580810546875,40.48482894897461 L298.45428466796875,40.369041442871094 L296.3836975097656,46.124996185302734 " stroke="none" fill="#000000" fill-rule="evenodd" stroke-width="0" fill-opacity="1" />
  <path d="M296.3836975097656,46.124996185302734 L294.01580810546875,40.48482894897461 L298.45428466796875,40.369041442871094 L296.3836975097656,46.124996185302734 " stroke="#000000" fill="none" stroke-width="1" stroke-opacity="1" />
  <path d="M334.125,69.8608169555664 L442.6213073730469,70.1846923828125 " stroke="#000000" fill="none" stroke-width="1" stroke-opacity="1" />
  <path d="M448.3212890625,70.20170593261719 L442.61468505859375,72.40467834472656 L442.6279296875,67.9646987915039 L448.3212890625,70.20170593261719 " stroke="none" fill="#000000" fill-rule="evenodd" stroke-width="0" fill-opacity="1" />
  <path d="M448.3212890625,70.20170593261719 L442.61468505859375,72.40467834472656 L442.6279296875,67.9646987915039 L448.3212890625,70.20170593261719 " stroke="#000000" fill="none" stroke-width="1" stroke-opacity="1" />
  <path d="M483.94354248046875,-56.26241683959961 L484.0721130371094,-40.57481002807617 " stroke="#000000" fill="none" stroke-width="1" stroke-opacity="1" />
  <path d="M484.11883544921875,-34.875003814697266 L481.8521728515625,-40.55661392211914 L486.2920227050781,-40.5930061340332 L484.11883544921875,-34.875003814697266 " stroke="none" fill="#000000" fill-rule="evenodd" stroke-width="0" fill-opacity="1" />
  <path d="M484.11883544921875,-34.875003814697266 L481.8521728515625,-40.55661392211914 L486.2920227050781,-40.5930061340332 L484.11883544921875,-34.875003814697266 " stroke="#000000" fill="none" stroke-width="1" stroke-opacity="1" />
  <path d="M485.1119384765625,46.7083854675293 L484.71697998046875,18.0744571685791 " stroke="#000000" fill="none" stroke-width="1" stroke-opacity="1" />
  <path d="M484.6383361816406,12.374999046325684 L486.9367370605469,18.043838500976562 L482.4971618652344,18.105073928833008 L484.6383361816406,12.374999046325684 " stroke="none" fill="#000000" fill-rule="evenodd" stroke-width="0" fill-opacity="1" />
  <path d="M484.6383361816406,12.374999046325684 L486.9367370605469,18.043838500976562 L482.4971618652344,18.105073928833008 L484.6383361816406,12.374999046325684 " stroke="#000000" fill="none" stroke-width="1" stroke-opacity="1" />
  <path d="M521.4375,-10.794479370117188 L533.2115478515625,-10.650012016296387 " stroke="#000000" fill="none" stroke-width="1" stroke-opacity="1" />
  <path d="M538.9110717773438,-10.580079078674316 L533.1842651367188,-8.430179595947266 L533.23876953125,-12.869845390319824 L538.9110717773438,-10.580079078674316 " stroke="none" fill="#000000" fill-rule="evenodd" stroke-width="0" fill-opacity="1" />
  <path d="M538.9110717773438,-10.580079078674316 L533.1842651367188,-8.430179595947266 L533.23876953125,-12.869845390319824 L538.9110717773438,-10.580079078674316 " stroke="#000000" fill="none" stroke-width="1" stroke-opacity="1" />
  <path d="M-47.90102005004883,-80.44694519042969 L-34.384918212890625,-80.03983306884766 " stroke="#000000" fill="none" stroke-width="1" stroke-opacity="1" />
  <path d="M-28.6875,-79.86822509765625 L-34.45175552368164,-77.82083892822266 L-34.31808090209961,-82.25882720947266 L-28.6875,-79.86822509765625 " stroke="none" fill="#000000" fill-rule="evenodd" stroke-width="0" fill-opacity="1" />
  <path d="M-28.6875,-79.86822509765625 L-34.45175552368164,-77.82083892822266 L-34.31808090209961,-82.25882720947266 L-28.6875,-79.86822509765625 " stroke="#000000" fill="none" stroke-width="1" stroke-opacity="1" />
  <path d="M45.5625,-78.75 L55.04999923706055,-78.75 " stroke="#000000" fill="none" stroke-width="1" stroke-opacity="1" />
  <path d="M60.75,-78.75000762939453 L55.04999923706055,-76.5300064086914 L55.04999923706055,-80.97000122070312 L60.75,-78.75000762939453 " stroke="none" fill="#000000" fill-rule="evenodd" stroke-width="0" fill-opacity="1" />
  <path d="M60.75,-78.75000762939453 L55.04999923706055,-76.5300064086914 L55.04999923706055,-80.97000122070312 L60.75,-78.75000762939453 " stroke="#000000" fill="none" stroke-width="1" stroke-opacity="1" />
  <path d="M134.9246063232422,-77.80001068115234 L142.80186462402344,-77.59803009033203 " stroke="#000000" fill="none" stroke-width="1" stroke-opacity="1" />
  <path d="M148.5,-77.4519271850586 L142.74496459960938,-75.3787612915039 L142.85877990722656,-79.81729888916016 L148.5,-77.4519271850586 " stroke="none" fill="#000000" fill-rule="evenodd" stroke-width="0" fill-opacity="1" />
  <path d="M148.5,-77.4519271850586 L142.74496459960938,-75.3787612915039 L142.85877990722656,-79.81729888916016 L148.5,-77.4519271850586 " stroke="#000000" fill="none" stroke-width="1" stroke-opacity="1" />
  <path d="M8.050942420959473,-21.926090240478516 L8.23801040649414,-49.425132751464844 " stroke="#000000" fill="none" stroke-width="1" stroke-opacity="1" />
  <path d="M8.276784896850586,-55.125003814697266 L10.457959175109863,-49.4100341796875 L6.018062114715576,-49.44023513793945 L8.276784896850586,-55.125003814697266 " stroke="none" fill="#000000" fill-rule="evenodd" stroke-width="0" fill-opacity="1" />
  <path d="M8.276784896850586,-55.125003814697266 L10.457959175109863,-49.4100341796875 L6.018062114715576,-49.44023513793945 L8.276784896850586,-55.125003814697266 " stroke="#000000" fill="none" stroke-width="1" stroke-opacity="1" />
  <path d="M186.0211944580078,-20.23933219909668 L185.8314971923828,-47.17514419555664 " stroke="#000000" fill="none" stroke-width="1" stroke-opacity="1" />
  <path d="M185.79136657714844,-52.875003814697266 L188.05145263671875,-47.19077682495117 L183.61155700683594,-47.15951156616211 L185.79136657714844,-52.875003814697266 " stroke="none" fill="#000000" fill-rule="evenodd" stroke-width="0" fill-opacity="1" />
  <path d="M185.79136657714844,-52.875003814697266 L188.05145263671875,-47.19077682495117 L183.61155700683594,-47.15951156616211 L185.79136657714844,-52.875003814697266 " stroke="#000000" fill="none" stroke-width="1" stroke-opacity="1" />
  <path d="M186.0211944580078,-20.23933219909668 L185.8314971923828,-47.17514419555664 " stroke="#000000" fill="none" stroke-width="1" stroke-opacity="1" stroke-dasharray="3,1" />
  <path d="M185.79136657714844,-52.875003814697266 L188.05145263671875,-47.19077682495117 L183.61155700683594,-47.15951156616211 L185.79136657714844,-52.875003814697266 " stroke="none" fill="#000000" fill-rule="evenodd" stroke-width="0" fill-opacity="1" />
  <path d="M185.79136657714844,-52.875003814697266 L188.05145263671875,-47.19077682495117 L183.61155700683594,-47.15951156616211 L185.79136657714844,-52.875003814697266 " stroke="#000000" fill="none" stroke-width="1" stroke-opacity="1" />
  <path d="M186.0211944580078,-20.23933219909668 L185.8314971923828,-47.17514419555664 " stroke="#000000" fill="none" stroke-width="1" stroke-opacity="1" stroke-dasharray="3,1" />
  <path d="M185.79136657714844,-52.875003814697266 L188.05145263671875,-47.19077682495117 L183.61155700683594,-47.15951156616211 L185.79136657714844,-52.875003814697266 " stroke="none" fill="#000000" fill-rule="evenodd" stroke-width="0" fill-opacity="1" />
  <path d="M185.79136657714844,-52.875003814697266 L188.05145263671875,-47.19077682495117 L183.61155700683594,-47.15951156616211 L185.79136657714844,-52.875003814697266 " stroke="#000000" fill="none" stroke-width="1" stroke-opacity="1" />
  <path d="M213.15492248535156,19.52808380126953 L257.2611083984375,45.947017669677734 " stroke="#000000" fill="none" stroke-width="1" stroke-opacity="1" />
  <path d="M262.1510009765625,48.8759880065918 L256.120361328125,47.85150146484375 L258.4018859863281,44.04252624511719 L262.1510009765625,48.8759880065918 " stroke="none" fill="#000000" fill-rule="evenodd" stroke-width="0" fill-opacity="1" />
  <path d="M262.1510009765625,48.8759880065918 L256.120361328125,47.85150146484375 L258.4018859863281,44.04252624511719 L262.1510009765625,48.8759880065918 " stroke="#000000" fill="none" stroke-width="1" stroke-opacity="1" />
  <path d="M213.15492248535156,19.52808380126953 L257.2611083984375,45.947017669677734 " stroke="#000000" fill="none" stroke-width="1" stroke-opacity="1" stroke-dasharray="3,1" />
  <path d="M262.1510009765625,48.8759880065918 L256.120361328125,47.85150146484375 L258.4018859863281,44.04252624511719 L262.1510009765625,48.8759880065918 " stroke="none" fill="#000000" fill-rule="evenodd" stroke-width="0" fill-opacity="1" />
  <path d="M262.1510009765625,48.8759880065918 L256.120361328125,47.85150146484375 L258.4018859863281,44.04252624511719 L262.1510009765625,48.8759880065918 " stroke="#000000" fill="none" stroke-width="1" stroke-opacity="1" />
  <path d="M213.15492248535156,19.52808380126953 L257.2611083984375,45.947017669677734 " stroke="#000000" fill="none" stroke-width="1" stroke-opacity="1" stroke-dasharray="3,1" />
  <path d="M262.1510009765625,48.8759880065918 L256.120361328125,47.85150146484375 L258.4018859863281,44.04252624511719 L262.1510009765625,48.8759880065918 " stroke="none" fill="#000000" fill-rule="evenodd" stroke-width="0" fill-opacity="1" />
  <path d="M262.1510009765625,48.8759880065918 L256.120361328125,47.85150146484375 L258.4018859863281,44.04252624511719 L262.1510009765625,48.8759880065918 " stroke="#000000" fill="none" stroke-width="1" stroke-opacity="1" />
  <path d="M157.00393676757812,-100.125 L214.2460479736328,-100.125 L214.24603271484375,-100.125 C218.942626953125,-100.12500762939453 222.74998474121094,-96.31767272949219 222.74998474121094,-91.6210708618164 C222.74998474121094,-91.6210708618164 222.74998474121094,-91.62106323242188 222.74998474121094,-91.62106323242188 L222.75,-91.62106323242188 L222.75,-61.378936767578125 L222.74998474121094,-61.378944396972656 C222.74998474121094,-56.682350158691406 218.94264221191406,-52.87500762939453 214.2460479736328,-52.875003814697266 L214.2460479736328,-52.875 L157.00393676757812,-52.875 L157.00393676757812,-52.875003814697266 C152.30734252929688,-52.875 148.5,-56.682342529296875 148.5,-61.378936767578125 L148.5,-91.62106323242188 L148.49998474121094,-91.62106323242188 C148.49998474121094,-96.31765747070312 152.3073272705078,-100.125 157.00392150878906,-100.12500762939453 " stroke="none" fill="#E7E7E7" fill-rule="evenodd" stroke-width="0" fill-opacity="1" />
  <text x="19.58585548400879" y="27.20834732055664" dx="0" dy="0" font-family="Segoe UI" font-size="7.800000185966496pt" fill="#000000" style="text-anchor:start" transform="matrix(0.750000 0.000000 0.000000 0.750000 148.5 -100.125)">Euclidean </text>
  <text x="21.171689987182617" y="44.49834442138672" dx="0" dy="0" font-family="Segoe UI" font-size="7.800000185966496pt" fill="#000000" style="text-anchor:start" transform="matrix(0.750000 0.000000 0.000000 0.750000 148.5 -100.125)">Distance</text>
  <path d="M157.00393676757812,-100.125 L214.2460479736328,-100.125 L214.24603271484375,-100.125 C218.942626953125,-100.12500762939453 222.74998474121094,-96.31767272949219 222.74998474121094,-91.6210708618164 C222.74998474121094,-91.6210708618164 222.74998474121094,-91.62106323242188 222.74998474121094,-91.62106323242188 L222.75,-91.62106323242188 L222.75,-61.378936767578125 L222.74998474121094,-61.378944396972656 C222.74998474121094,-56.682350158691406 218.94264221191406,-52.87500762939453 214.2460479736328,-52.875003814697266 L214.2460479736328,-52.875 L157.00393676757812,-52.875 L157.00393676757812,-52.875003814697266 C152.30734252929688,-52.875 148.5,-56.682342529296875 148.5,-61.378936767578125 L148.5,-91.62106323242188 L148.49998474121094,-91.62106323242188 C148.49998474121094,-96.31765747070312 152.3073272705078,-100.125 157.00392150878906,-100.12500762939453 " stroke="#000000" fill="none" stroke-width="1" stroke-opacity="1" />
  <path d="M317.8124694824219,-77.62500762939453 C317.8124694824219,-64.57728576660156 301.1910400390625,-54.00000762939453 280.6875,-54.000003814697266 C260.1839294433594,-54 243.5625,-64.5772705078125 243.5625,-77.625 C243.5625,-77.625 243.5625,-77.625 243.5625,-77.625 L243.5625,-77.62498474121094 C243.56246948242188,-90.67271423339844 260.18389892578125,-101.24999237060547 280.68743896484375,-101.25 C301.1910095214844,-101.25001525878906 317.8124694824219,-90.67274475097656 317.8124694824219,-77.625 C317.8124694824219,-77.625 317.8124694824219,-77.625 317.8124694824219,-77.625 " stroke="none" fill="#E7E7E7" fill-rule="evenodd" stroke-width="0" fill-opacity="1" />
  <text x="21.171689987182617" y="35.85334777832031" dx="0" dy="0" font-family="Segoe UI" font-size="7.800000185966496pt" fill="#000000" style="text-anchor:start" transform="matrix(0.750000 0.000000 0.000000 0.750000 243.5625 -101.25)">Distance</text>
  <path d="M317.8124694824219,-77.62500762939453 C317.8124694824219,-64.57728576660156 301.1910400390625,-54.00000762939453 280.6875,-54.000003814697266 C260.1839294433594,-54 243.5625,-64.5772705078125 243.5625,-77.625 C243.5625,-77.625 243.5625,-77.625 243.5625,-77.625 L243.5625,-77.62498474121094 C243.56246948242188,-90.67271423339844 260.18389892578125,-101.24999237060547 280.68743896484375,-101.25 C301.1910095214844,-101.25001525878906 317.8124694824219,-90.67274475097656 317.8124694824219,-77.625 C317.8124694824219,-77.625 317.8124694824219,-77.625 317.8124694824219,-77.625 " stroke="#000000" fill="none" stroke-width="1" stroke-opacity="1" />
  <path d="M221.62498474121094,-147.37501525878906 C221.62498474121094,-134.32728576660156 205.00355529785156,-123.75000762939453 184.5,-123.75000762939453 C163.99642944335938,-123.75 147.375,-134.3272705078125 147.375,-147.375 C147.375,-147.375 147.375,-147.375 147.375,-147.375 L147.375,-147.37498474121094 C147.37496948242188,-160.42271423339844 163.99639892578125,-171 184.4999542236328,-171 C205.00352478027344,-171.00001525878906 221.62496948242188,-160.42274475097656 221.62498474121094,-147.375 C221.62498474121094,-147.375 221.62498474121094,-147.375 221.62498474121094,-147.375 " stroke="none" fill="#E7E7E7" fill-rule="evenodd" stroke-width="0" fill-opacity="1" />
  <text x="24.82052230834961" y="27.20834732055664" dx="0" dy="0" font-family="Segoe UI" font-size="7.800000185966496pt" fill="#000000" style="text-anchor:start" transform="matrix(0.750000 0.000000 0.000000 0.750000 147.375 -171)">Output </text>
  <text x="3.0796890258789062" y="44.49834442138672" dx="0" dy="0" font-family="Segoe UI" font-size="7.800000185966496pt" fill="#000000" style="text-anchor:start" transform="matrix(0.750000 0.000000 0.000000 0.750000 147.375 -171)">direction raster</text>
  <path d="M221.62498474121094,-147.37501525878906 C221.62498474121094,-134.32728576660156 205.00355529785156,-123.75000762939453 184.5,-123.75000762939453 C163.99642944335938,-123.75 147.375,-134.3272705078125 147.375,-147.375 C147.375,-147.375 147.375,-147.375 147.375,-147.375 L147.375,-147.37498474121094 C147.37496948242188,-160.42271423339844 163.99639892578125,-171 184.4999542236328,-171 C205.00352478027344,-171.00001525878906 221.62496948242188,-160.42274475097656 221.62498474121094,-147.375 C221.62498474121094,-147.375 221.62498474121094,-147.375 221.62498474121094,-147.375 " stroke="#000000" fill="none" stroke-width="1" stroke-opacity="1" />
  <path d="M223.31248474121094,3.3749942779541016 C223.31248474121094,16.422718048095703 206.69105529785156,26.99999237060547 186.1875,26.999996185302734 C165.68392944335938,27 149.0625,16.4227294921875 149.0625,3.375 C149.0625,3.375 149.0625,3.375 149.0625,3.375 L149.0625,3.3750171661376953 C149.06246948242188,-9.672708511352539 165.68389892578125,-20.24999237060547 186.1874542236328,-20.25 C206.69102478027344,-20.250011444091797 223.31246948242188,-9.672743797302246 223.31248474121094,3.375 C223.31248474121094,3.375 223.31248474121094,3.375 223.31248474121094,3.375 " stroke="none" fill="#E7E7E7" fill-rule="evenodd" stroke-width="0" fill-opacity="1" />
  <text x="15.399188995361328" y="27.20834732055664" dx="0" dy="0" font-family="Segoe UI" font-size="7.800000185966496pt" fill="#000000" style="text-anchor:start" transform="matrix(0.750000 0.000000 0.000000 0.750000 149.0625 -20.25)">Input raster </text>
  <text x="30.63852310180664" y="44.49834442138672" dx="0" dy="0" font-family="Segoe UI" font-size="7.800000185966496pt" fill="#000000" style="text-anchor:start" transform="matrix(0.750000 0.000000 0.000000 0.750000 149.0625 -20.25)">(DEM)</text>
  <path d="M223.31248474121094,3.3749942779541016 C223.31248474121094,16.422718048095703 206.69105529785156,26.99999237060547 186.1875,26.999996185302734 C165.68392944335938,27 149.0625,16.4227294921875 149.0625,3.375 C149.0625,3.375 149.0625,3.375 149.0625,3.375 L149.0625,3.3750171661376953 C149.06246948242188,-9.672708511352539 165.68389892578125,-20.24999237060547 186.1874542236328,-20.25 C206.69102478027344,-20.250011444091797 223.31246948242188,-9.672743797302246 223.31248474121094,3.375 C223.31248474121094,3.375 223.31248474121094,3.375 223.31248474121094,3.375 " stroke="#000000" fill="none" stroke-width="1" stroke-opacity="1" />
  <path d="M358.0312194824219,-144.56251525878906 C358.0312194824219,-134.77671813964844 345.5651550292969,-126.84375762939453 330.1875,-126.84375762939453 C314.809814453125,-126.84375 302.34375,-134.77670288085938 302.34375,-144.5625 C302.34375,-144.5625 302.34375,-144.5625 302.34375,-144.5625 L302.3437194824219,-144.5625 C302.3437194824219,-154.34828186035156 314.8097839355469,-162.28125 330.1874694824219,-162.28125 C345.56512451171875,-162.28126525878906 358.0312194824219,-154.3483123779297 358.0312194824219,-144.5625 C358.0312194824219,-144.5625 358.0312194824219,-144.5625 358.0312194824219,-144.5625 " stroke="none" fill="#E7E7E7" fill-rule="evenodd" stroke-width="0" fill-opacity="1" />
  <text x="17.483522415161133" y="19.33334732055664" dx="0" dy="0" font-family="Segoe UI" font-size="7.800000185966496pt" fill="#000000" style="text-anchor:start" transform="matrix(0.750000 0.000000 0.000000 0.750000 302.34375 -162.28125)">Target </text>
  <text x="13.919855117797852" y="36.62334442138672" dx="0" dy="0" font-family="Segoe UI" font-size="7.800000185966496pt" fill="#000000" style="text-anchor:start" transform="matrix(0.750000 0.000000 0.000000 0.750000 302.34375 -162.28125)">Height</text>
  <path d="M358.0312194824219,-144.56251525878906 C358.0312194824219,-134.77671813964844 345.5651550292969,-126.84375762939453 330.1875,-126.84375762939453 C314.809814453125,-126.84375 302.34375,-134.77670288085938 302.34375,-144.5625 C302.34375,-144.5625 302.34375,-144.5625 302.34375,-144.5625 L302.3437194824219,-144.5625 C302.3437194824219,-154.34828186035156 314.8097839355469,-162.28125 330.1874694824219,-162.28125 C345.56512451171875,-162.28126525878906 358.0312194824219,-154.3483123779297 358.0312194824219,-144.5625 C358.0312194824219,-144.5625 358.0312194824219,-144.5625 358.0312194824219,-144.5625 " stroke="#000000" fill="none" stroke-width="1" stroke-opacity="1" />
  <path d="M458.7187194824219,-141.75001525878906 C458.7187194824219,-131.96421813964844 446.2526550292969,-124.03125762939453 430.875,-124.03125762939453 C415.497314453125,-124.03125 403.03125,-131.96420288085938 403.03125,-141.75 C403.03125,-141.75 403.03125,-141.75 403.03125,-141.75 L403.0312194824219,-141.75 C403.0312194824219,-151.53578186035156 415.4972839355469,-159.46875 430.8749694824219,-159.46875 C446.25262451171875,-159.46876525878906 458.7187194824219,-151.5358123779297 458.7187194824219,-141.75 C458.7187194824219,-141.75 458.7187194824219,-141.75 458.7187194824219,-141.75 " stroke="none" fill="#00CCFF" fill-rule="evenodd" stroke-width="0" fill-opacity="1" />
  <text x="8.795022010803223" y="19.33334732055664" dx="0" dy="0" font-family="Segoe UI" font-size="7.800000185966496pt" fill="#000000" style="text-anchor:start" transform="matrix(0.750000 0.000000 0.000000 0.750000 403.03125 -159.46875)">Distance </text>
  <text x="4.4978556632995605" y="36.62334442138672" dx="0" dy="0" font-family="Segoe UI" font-size="7.800000185966496pt" fill="#000000" style="text-anchor:start" transform="matrix(0.750000 0.000000 0.000000 0.750000 403.03125 -159.46875)">Multiplier</text>
  <path d="M458.7187194824219,-141.75001525878906 C458.7187194824219,-131.96421813964844 446.2526550292969,-124.03125762939453 430.875,-124.03125762939453 C415.497314453125,-124.03125 403.03125,-131.96420288085938 403.03125,-141.75 C403.03125,-141.75 403.03125,-141.75 403.03125,-141.75 L403.0312194824219,-141.75 C403.0312194824219,-151.53578186035156 415.4972839355469,-159.46875 430.8749694824219,-159.46875 C446.25262451171875,-159.46876525878906 458.7187194824219,-151.5358123779297 458.7187194824219,-141.75 C458.7187194824219,-141.75 458.7187194824219,-141.75 458.7187194824219,-141.75 " stroke="#000000" fill="none" stroke-width="1" stroke-opacity="1" />
  <path d="M410.3437194824219,-14.062505722045898 C410.3437194824219,-4.276712417602539 397.8776550292969,3.6562423706054688 382.5,3.6562461853027344 C367.122314453125,3.65625 354.65625,-4.276700973510742 354.65625,-14.0625 C354.65625,-14.0625 354.65625,-14.0625 354.65625,-14.0625 L354.6562194824219,-14.06248664855957 C354.6562194824219,-23.848281860351562 367.1222839355469,-31.7812442779541 382.4999694824219,-31.78125 C397.87762451171875,-31.78125762939453 410.3437194824219,-23.848308563232422 410.3437194824219,-14.0625 C410.3437194824219,-14.0625 410.3437194824219,-14.0625 410.3437194824219,-14.0625 " stroke="none" fill="#00CCFF" fill-rule="evenodd" stroke-width="0" fill-opacity="1" />
  <text x="15.718022346496582" y="19.33334732055664" dx="0" dy="0" font-family="Segoe UI" font-size="7.800000185966496pt" fill="#000000" style="text-anchor:start" transform="matrix(0.750000 0.000000 0.000000 0.750000 354.65625 -31.78125)">Clarity </text>
  <text x="19.536523818969727" y="36.62334442138672" dx="0" dy="0" font-family="Segoe UI" font-size="7.800000185966496pt" fill="#000000" style="text-anchor:start" transform="matrix(0.750000 0.000000 0.000000 0.750000 354.65625 -31.78125)">Zone</text>
  <path d="M410.3437194824219,-14.062505722045898 C410.3437194824219,-4.276712417602539 397.8776550292969,3.6562423706054688 382.5,3.6562461853027344 C367.122314453125,3.65625 354.65625,-4.276700973510742 354.65625,-14.0625 C354.65625,-14.0625 354.65625,-14.0625 354.65625,-14.0625 L354.6562194824219,-14.06248664855957 C354.6562194824219,-23.848281860351562 367.1222839355469,-31.7812442779541 382.4999694824219,-31.78125 C397.87762451171875,-31.78125762939453 410.3437194824219,-23.848308563232422 410.3437194824219,-14.0625 C410.3437194824219,-14.0625 410.3437194824219,-14.0625 410.3437194824219,-14.0625 " stroke="#000000" fill="none" stroke-width="1" stroke-opacity="1" />
  <path d="M520.8749389648438,-79.87500762939453 C520.8749389648438,-66.82728576660156 504.2535400390625,-56.25000762939453 483.75,-56.250003814697266 C463.2464294433594,-56.25 446.625,-66.8272705078125 446.625,-79.875 C446.625,-79.875 446.625,-79.875 446.625,-79.875 L446.625,-79.87498474121094 C446.6249694824219,-92.92271423339844 463.24639892578125,-103.49999237060547 483.74993896484375,-103.5 C504.2535095214844,-103.50001525878906 520.8749389648438,-92.92274475097656 520.8749389648438,-79.875 C520.8749389648438,-79.875 520.8749389648438,-79.875 520.8749389648438,-79.875 " stroke="none" fill="#E7E7E7" fill-rule="evenodd" stroke-width="0" fill-opacity="1" />
  <text x="11.56618881225586" y="35.85334777832031" dx="0" dy="0" font-family="Segoe UI" font-size="7.800000185966496pt" fill="#000000" style="text-anchor:start" transform="matrix(0.750000 0.000000 0.000000 0.750000 446.625 -103.5)">Fuzzy Raster</text>
  <path d="M520.8749389648438,-79.87500762939453 C520.8749389648438,-66.82728576660156 504.2535400390625,-56.25000762939453 483.75,-56.250003814697266 C463.2464294433594,-56.25 446.625,-66.8272705078125 446.625,-79.875 C446.625,-79.875 446.625,-79.875 446.625,-79.875 L446.625,-79.87498474121094 C446.6249694824219,-92.92271423339844 463.24639892578125,-103.49999237060547 483.74993896484375,-103.5 C504.2535095214844,-103.50001525878906 520.8749389648438,-92.92274475097656 520.8749389648438,-79.875 C520.8749389648438,-79.875 520.8749389648438,-79.875 520.8749389648438,-79.875 " stroke="#000000" fill="none" stroke-width="1" stroke-opacity="1" />
  <path d="M-47.81250762939453,-81.56250762939453 C-47.81251525878906,-68.51478576660156 -64.4339370727539,-57.93750762939453 -84.93749237060547,-57.937503814697266 C-105.4410629272461,-57.9375 -122.0625,-68.5147705078125 -122.0625,-81.5625 C-122.0625,-81.5625 -122.0625,-81.5625 -122.0625,-81.5625 L-122.0625,-81.56248474121094 C-122.0625228881836,-94.61021423339844 -105.44110107421875,-105.18749237060547 -84.93753814697266,-105.1875 C-64.43396759033203,-105.18751525878906 -47.812522888183594,-94.61024475097656 -47.81250762939453,-81.5625 C-47.81250762939453,-81.5625 -47.81250762939453,-81.5625 -47.81250762939453,-81.5625 " stroke="none" fill="#E7E7E7" fill-rule="evenodd" stroke-width="0" fill-opacity="1" />
  <text x="19.393856048583984" y="35.85334777832031" dx="0" dy="0" font-family="Segoe UI" font-size="7.800000185966496pt" fill="#000000" style="text-anchor:start" transform="matrix(0.750000 0.000000 0.000000 0.750000 -122.0625 -105.1875)">Observer</text>
  <path d="M-47.81250762939453,-81.56250762939453 C-47.81251525878906,-68.51478576660156 -64.4339370727539,-57.93750762939453 -84.93749237060547,-57.937503814697266 C-105.4410629272461,-57.9375 -122.0625,-68.5147705078125 -122.0625,-81.5625 C-122.0625,-81.5625 -122.0625,-81.5625 -122.0625,-81.5625 L-122.0625,-81.56248474121094 C-122.0625228881836,-94.61021423339844 -105.44110107421875,-105.18749237060547 -84.93753814697266,-105.1875 C-64.43396759033203,-105.18751525878906 -47.812522888183594,-94.61024475097656 -47.81250762939453,-81.5625 C-47.81250762939453,-81.5625 -47.81250762939453,-81.5625 -47.81250762939453,-81.5625 " stroke="#000000" fill="none" stroke-width="1" stroke-opacity="1" />
  <path d="M268.3789367675781,46.125 L325.62103271484375,46.125 L325.62103271484375,46.125 C330.317626953125,46.12499237060547 334.1249694824219,49.93232727050781 334.1249694824219,54.62893295288086 C334.1249694824219,54.62893295288086 334.1249694824219,54.628936767578125 334.1249694824219,54.628936767578125 L334.125,54.628936767578125 L334.125,84.87106323242188 L334.1249694824219,84.87105560302734 C334.1249694824219,89.5676498413086 330.317626953125,93.37499237060547 325.62103271484375,93.37499237060547 L325.62103271484375,93.375 L268.3789367675781,93.375 L268.3789367675781,93.37499237060547 C263.6823425292969,93.375 259.875,89.56765747070312 259.875,84.87106323242188 L259.875,54.628936767578125 L259.8749694824219,54.62894058227539 C259.8749694824219,49.93234634399414 263.68231201171875,46.125 268.37890625,46.124996185302734 " stroke="none" fill="#E7E7E7" fill-rule="evenodd" stroke-width="0" fill-opacity="1" />
  <text x="18.798357009887695" y="35.85334777832031" dx="0" dy="0" font-family="Segoe UI" font-size="7.800000185966496pt" fill="#000000" style="text-anchor:start" transform="matrix(0.750000 0.000000 0.000000 0.750000 259.875 46.125)">Viewshed</text>
  <path d="M268.3789367675781,46.125 L325.62103271484375,46.125 L325.62103271484375,46.125 C330.317626953125,46.12499237060547 334.1249694824219,49.93232727050781 334.1249694824219,54.62893295288086 C334.1249694824219,54.62893295288086 334.1249694824219,54.628936767578125 334.1249694824219,54.628936767578125 L334.125,54.628936767578125 L334.125,84.87106323242188 L334.1249694824219,84.87105560302734 C334.1249694824219,89.5676498413086 330.317626953125,93.37499237060547 325.62103271484375,93.37499237060547 L325.62103271484375,93.375 L268.3789367675781,93.375 L268.3789367675781,93.37499237060547 C263.6823425292969,93.375 259.875,89.56765747070312 259.875,84.87106323242188 L259.875,54.628936767578125 L259.8749694824219,54.62894058227539 C259.8749694824219,49.93234634399414 263.68231201171875,46.125 268.37890625,46.124996185302734 " stroke="#000000" fill="none" stroke-width="1" stroke-opacity="1" />
  <path d="M522.5624389648438,70.31249237060547 C522.5624389648438,83.36021423339844 505.9410400390625,93.93749237060547 485.4375,93.93749237060547 C464.9339294433594,93.9375 448.3125,83.3602294921875 448.3125,70.3125 C448.3125,70.3125 448.3125,70.3125 448.3125,70.3125 L448.3125,70.31251525878906 C448.3124694824219,57.26478958129883 464.93389892578125,46.68750762939453 485.43743896484375,46.6875 C505.9410095214844,46.6874885559082 522.5624389648438,57.26475524902344 522.5624389648438,70.3125 C522.5624389648438,70.3125 522.5624389648438,70.3125 522.5624389648438,70.3125 " stroke="none" fill="#E7E7E7" fill-rule="evenodd" stroke-width="0" fill-opacity="1" />
  <text x="29.246688842773438" y="27.20834732055664" dx="0" dy="0" font-family="Segoe UI" font-size="7.800000185966496pt" fill="#000000" style="text-anchor:start" transform="matrix(0.750000 0.000000 0.000000 0.750000 448.3125 46.6875)">Single </text>
  <text x="18.798357009887695" y="44.49834442138672" dx="0" dy="0" font-family="Segoe UI" font-size="7.800000185966496pt" fill="#000000" style="text-anchor:start" transform="matrix(0.750000 0.000000 0.000000 0.750000 448.3125 46.6875)">Viewshed</text>
  <path d="M522.5624389648438,70.31249237060547 C522.5624389648438,83.36021423339844 505.9410400390625,93.93749237060547 485.4375,93.93749237060547 C464.9339294433594,93.9375 448.3125,83.3602294921875 448.3125,70.3125 C448.3125,70.3125 448.3125,70.3125 448.3125,70.3125 L448.3125,70.31251525878906 C448.3124694824219,57.26478958129883 464.93389892578125,46.68750762939453 485.43743896484375,46.6875 C505.9410095214844,46.6874885559082 522.5624389648438,57.26475524902344 522.5624389648438,70.3125 C522.5624389648438,70.3125 522.5624389648438,70.3125 522.5624389648438,70.3125 " stroke="#000000" fill="none" stroke-width="1" stroke-opacity="1" />
  <path d="M323.1562194824219,5.062494277954102 C323.1562194824219,14.848287582397461 310.6901550292969,22.78124237060547 295.3125,22.781246185302734 C279.934814453125,22.78125 267.46875,14.848299026489258 267.46875,5.0625 C267.46875,5.0625 267.46875,5.0625 267.46875,5.0625 L267.4687194824219,5.06251335144043 C267.4687194824219,-4.723281383514404 279.9347839355469,-12.656244277954102 295.3124694824219,-12.65625 C310.69012451171875,-12.656257629394531 323.1562194824219,-4.723308086395264 323.1562194824219,5.0625 C323.1562194824219,5.0625 323.1562194824219,5.0625 323.1562194824219,5.0625 " stroke="none" fill="#00CCFF" fill-rule="evenodd" stroke-width="0" fill-opacity="1" />
  <text x="6.11602258682251" y="19.33334732055664" dx="0" dy="0" font-family="Segoe UI" font-size="7.800000185966496pt" fill="#000000" style="text-anchor:start" transform="matrix(0.750000 0.000000 0.000000 0.750000 267.46875 -12.65625)">Use earth </text>
  <text x="3.165188789367676" y="36.62334442138672" dx="0" dy="0" font-family="Segoe UI" font-size="7.800000185966496pt" fill="#000000" style="text-anchor:start" transform="matrix(0.750000 0.000000 0.000000 0.750000 267.46875 -12.65625)">curvature </text>
  <text x="55.208187103271484" y="36.62334442138672" dx="0" dy="0" font-family="Segoe UI" font-size="7.800000185966496pt" fill="#000000" style="text-anchor:start" transform="matrix(0.750000 0.000000 0.000000 0.750000 267.46875 -12.65625)"> ...</text>
  <path d="M323.1562194824219,5.062494277954102 C323.1562194824219,14.848287582397461 310.6901550292969,22.78124237060547 295.3125,22.781246185302734 C279.934814453125,22.78125 267.46875,14.848299026489258 267.46875,5.0625 C267.46875,5.0625 267.46875,5.0625 267.46875,5.0625 L267.4687194824219,5.06251335144043 C267.4687194824219,-4.723281383514404 279.9347839355469,-12.656244277954102 295.3124694824219,-12.65625 C310.69012451171875,-12.656257629394531 323.1562194824219,-4.723308086395264 323.1562194824219,5.0625 C323.1562194824219,5.0625 323.1562194824219,5.0625 323.1562194824219,5.0625 " stroke="#000000" fill="none" stroke-width="1" stroke-opacity="1" />
  <path d="M455.6914367675781,-34.875 L512.9335327148438,-34.875 L512.9335327148438,-34.875 C517.630126953125,-34.87500762939453 521.4374389648438,-31.067672729492188 521.4374389648438,-26.37106704711914 C521.4374389648438,-26.371065139770508 521.4374389648438,-26.371063232421875 521.4374389648438,-26.371061325073242 L521.4375,-26.371063232421875 L521.4375,3.871063232421875 L521.4374389648438,3.8710556030273438 C521.4374389648438,8.567649841308594 517.630126953125,12.374992370605469 512.9335327148438,12.374996185302734 L512.9335327148438,12.375 L455.6914367675781,12.375 L455.6914367675781,12.374996185302734 C450.9948425292969,12.375 447.1875,8.567657470703125 447.1875,3.871063232421875 L447.1875,-26.371063232421875 L447.1874694824219,-26.37105941772461 C447.1874694824219,-31.06765365600586 450.99481201171875,-34.875 455.69140625,-34.875003814697266 " stroke="none" fill="#E7E7E7" fill-rule="evenodd" stroke-width="0" fill-opacity="1" />
  <text x="30.065523147583008" y="35.85334777832031" dx="0" dy="0" font-family="Segoe UI" font-size="7.800000185966496pt" fill="#000000" style="text-anchor:start" transform="matrix(0.750000 0.000000 0.000000 0.750000 447.1875 -34.875)">Times</text>
  <path d="M455.6914367675781,-34.875 L512.9335327148438,-34.875 L512.9335327148438,-34.875 C517.630126953125,-34.87500762939453 521.4374389648438,-31.067672729492188 521.4374389648438,-26.37106704711914 C521.4374389648438,-26.371065139770508 521.4374389648438,-26.371063232421875 521.4374389648438,-26.371061325073242 L521.4375,-26.371063232421875 L521.4375,3.871063232421875 L521.4374389648438,3.8710556030273438 C521.4374389648438,8.567649841308594 517.630126953125,12.374992370605469 512.9335327148438,12.374996185302734 L512.9335327148438,12.375 L455.6914367675781,12.375 L455.6914367675781,12.374996185302734 C450.9948425292969,12.375 447.1875,8.567657470703125 447.1875,3.871063232421875 L447.1875,-26.371063232421875 L447.1874694824219,-26.37105941772461 C447.1874694824219,-31.06765365600586 450.99481201171875,-34.875 455.69140625,-34.875003814697266 " stroke="#000000" fill="none" stroke-width="1" stroke-opacity="1" />
  <path d="M613.1249389648438,-10.125005722045898 C613.1249389648438,2.922718048095703 596.5035400390625,13.499992370605469 576,13.499996185302734 C555.4963989257812,13.5 538.875,2.9227294921875 538.875,-10.125 C538.875,-10.125 538.875,-10.125 538.875,-10.125 L538.875,-10.124982833862305 C538.8749389648438,-23.17270851135254 555.4963989257812,-33.74999237060547 575.9999389648438,-33.75 C596.5034790039062,-33.7500114440918 613.1249389648438,-23.172744750976562 613.1249389648438,-10.125 C613.1249389648438,-10.125 613.1249389648438,-10.125 613.1249389648438,-10.125 " stroke="none" fill="#E7E7E7" fill-rule="evenodd" stroke-width="0" fill-opacity="1" />
  <text x="2.0095224380493164" y="35.85334777832031" dx="0" dy="0" font-family="Segoe UI" font-size="7.800000185966496pt" fill="#000000" style="text-anchor:start" transform="matrix(0.750000 0.000000 0.000000 0.750000 538.875 -33.75)">Fuzzy Viewshed</text>
  <path d="M613.1249389648438,-10.125005722045898 C613.1249389648438,2.922718048095703 596.5035400390625,13.499992370605469 576,13.499996185302734 C555.4963989257812,13.5 538.875,2.9227294921875 538.875,-10.125 C538.875,-10.125 538.875,-10.125 538.875,-10.125 L538.875,-10.124982833862305 C538.8749389648438,-23.17270851135254 555.4963989257812,-33.74999237060547 575.9999389648438,-33.75 C596.5034790039062,-33.7500114440918 613.1249389648438,-23.172744750976562 613.1249389648438,-10.125 C613.1249389648438,-10.125 613.1249389648438,-10.125 613.1249389648438,-10.125 " stroke="#000000" fill="none" stroke-width="1" stroke-opacity="1" />
  <path d="M-20.183563232421875,-102.375 L37.058555603027344,-102.375 L37.05854034423828,-102.375 C41.75513458251953,-102.37500762939453 45.56248474121094,-98.56767272949219 45.56249237060547,-93.8710708618164 C45.56249237060547,-93.8710708618164 45.56249237060547,-93.87106323242188 45.56249237060547,-93.87106323242188 L45.5625,-93.87106323242188 L45.5625,-63.628936767578125 L45.56249237060547,-63.628944396972656 C45.56249237060547,-58.932350158691406 41.755149841308594,-55.12500762939453 37.058555603027344,-55.125003814697266 L37.058555603027344,-55.125 L-20.183563232421875,-55.125 L-20.18355941772461,-55.125003814697266 C-24.88015365600586,-55.125 -28.687498092651367,-58.932342529296875 -28.6875,-63.628936767578125 L-28.6875,-93.87106323242188 L-28.687501907348633,-93.87106323242188 C-28.6875057220459,-98.56765747070312 -24.88016700744629,-102.375 -20.18357276916504,-102.37500762939453 " stroke="none" fill="#E7E7E7" fill-rule="evenodd" stroke-width="0" fill-opacity="1" />
  <text x="19.393856048583984" y="27.20834732055664" dx="0" dy="0" font-family="Segoe UI" font-size="7.800000185966496pt" fill="#000000" style="text-anchor:start" transform="matrix(0.750000 0.000000 0.000000 0.750000 -28.6875 -102.375)">Observer </text>
  <text x="20.66335678100586" y="44.49834442138672" dx="0" dy="0" font-family="Segoe UI" font-size="7.800000185966496pt" fill="#000000" style="text-anchor:start" transform="matrix(0.750000 0.000000 0.000000 0.750000 -28.6875 -102.375)">Selection</text>
  <path d="M-20.183563232421875,-102.375 L37.058555603027344,-102.375 L37.05854034423828,-102.375 C41.75513458251953,-102.37500762939453 45.56248474121094,-98.56767272949219 45.56249237060547,-93.8710708618164 C45.56249237060547,-93.8710708618164 45.56249237060547,-93.87106323242188 45.56249237060547,-93.87106323242188 L45.5625,-93.87106323242188 L45.5625,-63.628936767578125 L45.56249237060547,-63.628944396972656 C45.56249237060547,-58.932350158691406 41.755149841308594,-55.12500762939453 37.058555603027344,-55.125003814697266 L37.058555603027344,-55.125 L-20.183563232421875,-55.125 L-20.18355941772461,-55.125003814697266 C-24.88015365600586,-55.125 -28.687498092651367,-58.932342529296875 -28.6875,-63.628936767578125 L-28.6875,-93.87106323242188 L-28.687501907348633,-93.87106323242188 C-28.6875057220459,-98.56765747070312 -24.88016700744629,-102.375 -20.18357276916504,-102.37500762939453 " stroke="#000000" fill="none" stroke-width="1" stroke-opacity="1" />
  <path d="M134.99998474121094,-78.75000762939453 C134.99998474121094,-65.70228576660156 118.3785629272461,-55.12500762939453 97.87500762939453,-55.125003814697266 C77.3714370727539,-55.125 60.750003814697266,-65.7022705078125 60.75,-78.75 C60.75,-78.75 60.75,-78.75 60.75,-78.75 L60.75,-78.74998474121094 C60.749977111816406,-91.79771423339844 77.37139892578125,-102.37499237060547 97.87496185302734,-102.375 C118.37853240966797,-102.37501525878906 134.99996948242188,-91.79774475097656 134.99998474121094,-78.75 C134.99998474121094,-78.75 134.99998474121094,-78.75 134.99998474121094,-78.75 " stroke="none" fill="#E7E7E7" fill-rule="evenodd" stroke-width="0" fill-opacity="1" />
  <text x="22.496688842773438" y="27.20834732055664" dx="0" dy="0" font-family="Segoe UI" font-size="7.800000185966496pt" fill="#000000" style="text-anchor:start" transform="matrix(0.750000 0.000000 0.000000 0.750000 60.75 -102.375)">Selected </text>
  <text x="19.393856048583984" y="44.49834442138672" dx="0" dy="0" font-family="Segoe UI" font-size="7.800000185966496pt" fill="#000000" style="text-anchor:start" transform="matrix(0.750000 0.000000 0.000000 0.750000 60.75 -102.375)">Observer</text>
  <path d="M134.99998474121094,-78.75000762939453 C134.99998474121094,-65.70228576660156 118.3785629272461,-55.12500762939453 97.87500762939453,-55.125003814697266 C77.3714370727539,-55.125 60.750003814697266,-65.7022705078125 60.75,-78.75 C60.75,-78.75 60.75,-78.75 60.75,-78.75 L60.75,-78.74998474121094 C60.749977111816406,-91.79771423339844 77.37139892578125,-102.37499237060547 97.87496185302734,-102.375 C118.37853240966797,-102.37501525878906 134.99996948242188,-91.79774475097656 134.99998474121094,-78.75 C134.99998474121094,-78.75 134.99998474121094,-78.75 134.99998474121094,-78.75 " stroke="#000000" fill="none" stroke-width="1" stroke-opacity="1" />
  <path d="M48.09373474121094,3.9374942779541016 C48.09374237060547,18.227859497070312 30.087196350097656,29.812488555908203 7.875011444091797,29.81249237060547 C-14.337186813354492,29.8125 -32.34374237060547,18.227874755859375 -32.34375,3.9375 C-32.34375,3.9375 -32.34375,3.9375 -32.34375,3.9375 L-32.343753814697266,3.937519073486328 C-32.343772888183594,-10.352849006652832 -14.33723258972168,-21.93749237060547 7.874965667724609,-21.9375 C30.087162017822266,-21.937511444091797 48.093727111816406,-10.352886199951172 48.09374237060547,3.9375 C48.09374237060547,3.9375 48.09374237060547,3.9375 48.09374237060547,3.9375 " stroke="none" fill="#E7E7E7" fill-rule="evenodd" stroke-width="0" fill-opacity="1" />
  <text x="16.332523345947266" y="30.208345413208008" dx="0" dy="0" font-family="Segoe UI" font-size="7.800000185966496pt" fill="#000000" style="text-anchor:start" transform="matrix(0.750000 0.000000 0.000000 0.750000 -32.34375 -21.9375)">Expression </text>
  <text x="81.24485778808594" y="30.208345413208008" dx="0" dy="0" font-family="Segoe UI" font-size="7.800000185966496pt" fill="#000000" style="text-anchor:start" transform="matrix(0.750000 0.000000 0.000000 0.750000 -32.34375 -21.9375)">-</text>
  <text x="87.26385498046875" y="30.208345413208008" dx="0" dy="0" font-family="Segoe UI" font-size="7.800000185966496pt" fill="#000000" style="text-anchor:start" transform="matrix(0.750000 0.000000 0.000000 0.750000 -32.34375 -21.9375)"> </text>
  <text x="6.156689167022705" y="47.498348236083984" dx="0" dy="0" font-family="Segoe UI" font-size="7.800000185966496pt" fill="#000000" style="text-anchor:start" transform="matrix(0.750000 0.000000 0.000000 0.750000 -32.34375 -21.9375)">Select Observer</text>
  <path d="M48.09373474121094,3.9374942779541016 C48.09374237060547,18.227859497070312 30.087196350097656,29.812488555908203 7.875011444091797,29.81249237060547 C-14.337186813354492,29.8125 -32.34374237060547,18.227874755859375 -32.34375,3.9375 C-32.34375,3.9375 -32.34375,3.9375 -32.34375,3.9375 L-32.343753814697266,3.937519073486328 C-32.343772888183594,-10.352849006652832 -14.33723258972168,-21.93749237060547 7.874965667724609,-21.9375 C30.087162017822266,-21.937511444091797 48.093727111816406,-10.352886199951172 48.09374237060547,3.9375 C48.09374237060547,3.9375 48.09374237060547,3.9375 48.09374237060547,3.9375 " stroke="#000000" fill="none" stroke-width="1" stroke-opacity="1" />
  <path d="M230.81248474121094,-13.687501907348633 C230.81248474121094,-9.545367240905762 227.45462036132812,-6.187501907348633 223.3125,-6.187501907348633 C219.1703643798828,-6.1875 215.8125,-9.545360565185547 215.8125,-13.687495231628418 L215.81248474121094,-13.687494277954102 C215.81248474121094,-17.82962989807129 219.17034912109375,-21.187498092651367 223.31248474121094,-21.1875 C227.45462036132812,-21.18750762939453 230.81248474121094,-17.829648971557617 230.81248474121094,-13.687501907348633 C230.81248474121094,-13.687500953674316 230.81248474121094,-13.6875 230.81248474121094,-13.6875 " stroke="none" fill="none" fill-rule="evenodd" stroke-width="0" fill-opacity="0" />
  <text x="2.7061891555786133" y="15.29671859741211" dx="0" dy="0" font-family="Arial" font-size="7.200000171661381pt" fill="#ADADAD" style="text-anchor:start" font-weight="bold" transform="matrix(0.750000 0.000000 0.000000 0.750000 215.8125 -21.1875)">P</text>
  <path d="M230.81248474121094,-13.687501907348633 C230.81248474121094,-9.545367240905762 227.45462036132812,-6.187501907348633 223.3125,-6.187501907348633 C219.1703643798828,-6.1875 215.8125,-9.545360565185547 215.8125,-13.687495231628418 L215.81248474121094,-13.687494277954102 C215.81248474121094,-17.82962989807129 219.17034912109375,-21.187498092651367 223.31248474121094,-21.1875 C227.45462036132812,-21.18750762939453 230.81248474121094,-17.829648971557617 230.81248474121094,-13.687501907348633 C230.81248474121094,-13.687500953674316 230.81248474121094,-13.6875 230.81248474121094,-13.6875 " stroke="none" fill="none" stroke-width="0.6" stroke-opacity="0" />
  <path d="M365.5312194824219,-155.71876525878906 C365.5312194824219,-151.57662963867188 362.1733703613281,-148.21876525878906 358.03125,-148.21876525878906 C353.88909912109375,-148.21875 350.53125,-151.5766143798828 350.53125,-155.71875 L350.5312194824219,-155.71875 C350.5312194824219,-159.8608856201172 353.88909912109375,-163.21875 358.0312194824219,-163.21875 C362.1733703613281,-163.21876525878906 365.5312194824219,-159.86090087890625 365.5312194824219,-155.71876525878906 C365.5312194824219,-155.71876525878906 365.5312194824219,-155.71875 365.5312194824219,-155.71875 " stroke="none" fill="none" fill-rule="evenodd" stroke-width="0" fill-opacity="0" />
  <text x="2.7061891555786133" y="15.29671859741211" dx="0" dy="0" font-family="Arial" font-size="7.200000171661381pt" fill="#ADADAD" style="text-anchor:start" font-weight="bold" transform="matrix(0.750000 0.000000 0.000000 0.750000 350.53125 -163.21875)">P</text>
  <path d="M365.5312194824219,-155.71876525878906 C365.5312194824219,-151.57662963867188 362.1733703613281,-148.21876525878906 358.03125,-148.21876525878906 C353.88909912109375,-148.21875 350.53125,-151.5766143798828 350.53125,-155.71875 L350.5312194824219,-155.71875 C350.5312194824219,-159.8608856201172 353.88909912109375,-163.21875 358.0312194824219,-163.21875 C362.1733703613281,-163.21876525878906 365.5312194824219,-159.86090087890625 365.5312194824219,-155.71876525878906 C365.5312194824219,-155.71876525878906 365.5312194824219,-155.71875 365.5312194824219,-155.71875 " stroke="none" fill="none" stroke-width="0.6" stroke-opacity="0" />
  <path d="M417.8437194824219,-25.218751907348633 C417.8437194824219,-21.076618194580078 414.4858703613281,-17.718751907348633 410.34375,-17.718751907348633 C406.20159912109375,-17.71875 402.84375,-21.076610565185547 402.84375,-25.218746185302734 L402.8437194824219,-25.2187442779541 C402.8437194824219,-29.36087989807129 406.20159912109375,-32.71875 410.3437194824219,-32.71875 C414.4858703613281,-32.71875762939453 417.8437194824219,-29.360898971557617 417.8437194824219,-25.218751907348633 C417.8437194824219,-25.218751907348633 417.8437194824219,-25.21875 417.8437194824219,-25.21875 " stroke="none" fill="none" fill-rule="evenodd" stroke-width="0" fill-opacity="0" />
  <text x="2.7061891555786133" y="15.29671859741211" dx="0" dy="0" font-family="Arial" font-size="7.200000171661381pt" fill="#ADADAD" style="text-anchor:start" font-weight="bold" transform="matrix(0.750000 0.000000 0.000000 0.750000 402.84375 -32.71875)">P</text>
  <path d="M417.8437194824219,-25.218751907348633 C417.8437194824219,-21.076618194580078 414.4858703613281,-17.718751907348633 410.34375,-17.718751907348633 C406.20159912109375,-17.71875 402.84375,-21.076610565185547 402.84375,-25.218746185302734 L402.8437194824219,-25.2187442779541 C402.8437194824219,-29.36087989807129 406.20159912109375,-32.71875 410.3437194824219,-32.71875 C414.4858703613281,-32.71875762939453 417.8437194824219,-29.360898971557617 417.8437194824219,-25.218751907348633 C417.8437194824219,-25.218751907348633 417.8437194824219,-25.21875 417.8437194824219,-25.21875 " stroke="none" fill="none" stroke-width="0.6" stroke-opacity="0" />
  <path d="M-40.312503814697266,-98.62500762939453 C-40.312503814697266,-94.48287200927734 -43.67036819458008,-91.12500762939453 -47.8125,-91.12500762939453 C-51.95463180541992,-91.125 -55.3125,-94.48286437988281 -55.3125,-98.625 L-55.312503814697266,-98.625 C-55.31250762939453,-102.76713562011719 -51.95464324951172,-106.125 -47.81251525878906,-106.125 C-43.670379638671875,-106.12500762939453 -40.3125114440918,-102.76715087890625 -40.312503814697266,-98.62500762939453 C-40.312503814697266,-98.62500762939453 -40.312503814697266,-98.625 -40.312503814697266,-98.625 " stroke="none" fill="none" fill-rule="evenodd" stroke-width="0" fill-opacity="0" />
  <text x="2.7061891555786133" y="15.29671859741211" dx="0" dy="0" font-family="Arial" font-size="7.200000171661381pt" fill="#ADADAD" style="text-anchor:start" font-weight="bold" transform="matrix(0.750000 0.000000 0.000000 0.750000 -55.3125 -106.125)">P</text>
  <path d="M-40.312503814697266,-98.62500762939453 C-40.312503814697266,-94.48287200927734 -43.67036819458008,-91.12500762939453 -47.8125,-91.12500762939453 C-51.95463180541992,-91.125 -55.3125,-94.48286437988281 -55.3125,-98.625 L-55.312503814697266,-98.625 C-55.31250762939453,-102.76713562011719 -51.95464324951172,-106.125 -47.81251525878906,-106.125 C-43.670379638671875,-106.12500762939453 -40.3125114440918,-102.76715087890625 -40.312503814697266,-98.62500762939453 C-40.312503814697266,-98.62500762939453 -40.312503814697266,-98.625 -40.312503814697266,-98.625 " stroke="none" fill="none" stroke-width="0.6" stroke-opacity="0" />
  <path d="M330.6562194824219,-6.093751430511475 C330.6562194824219,-1.9516172409057617 327.2983703613281,1.4062480926513672 323.15625,1.4062480926513672 C319.01409912109375,1.40625 315.65625,-1.9516105651855469 315.65625,-6.093745231628418 L315.6562194824219,-6.093744277954102 C315.6562194824219,-10.235879898071289 319.01409912109375,-13.59374713897705 323.1562194824219,-13.59375 C327.2983703613281,-13.593757629394531 330.6562194824219,-10.2358980178833 330.6562194824219,-6.093751430511475 C330.6562194824219,-6.093750953674316 330.6562194824219,-6.09375 330.6562194824219,-6.093749523162842 " stroke="none" fill="none" fill-rule="evenodd" stroke-width="0" fill-opacity="0" />
  <text x="2.7061891555786133" y="15.29671859741211" dx="0" dy="0" font-family="Arial" font-size="7.200000171661381pt" fill="#ADADAD" style="text-anchor:start" font-weight="bold" transform="matrix(0.750000 0.000000 0.000000 0.750000 315.65625 -13.59375)">P</text>
  <path d="M330.6562194824219,-6.093751430511475 C330.6562194824219,-1.9516172409057617 327.2983703613281,1.4062480926513672 323.15625,1.4062480926513672 C319.01409912109375,1.40625 315.65625,-1.9516105651855469 315.65625,-6.093745231628418 L315.6562194824219,-6.093744277954102 C315.6562194824219,-10.235879898071289 319.01409912109375,-13.59374713897705 323.1562194824219,-13.59375 C327.2983703613281,-13.593757629394531 330.6562194824219,-10.2358980178833 330.6562194824219,-6.093751430511475 C330.6562194824219,-6.093750953674316 330.6562194824219,-6.09375 330.6562194824219,-6.093749523162842 " stroke="none" fill="none" stroke-width="0.6" stroke-opacity="0" />
  <path d="M620.6249389648438,-27.187501907348633 C620.6249389648438,-23.045368194580078 617.26708984375,-19.687501907348633 613.125,-19.687501907348633 C608.9828491210938,-19.6875 605.625,-23.045360565185547 605.625,-27.187496185302734 L605.6249389648438,-27.1874942779541 C605.6249389648438,-31.32962989807129 608.9828491210938,-34.6875 613.1249389648438,-34.6875 C617.26708984375,-34.68750762939453 620.6249389648438,-31.329648971557617 620.6249389648438,-27.187501907348633 C620.6249389648438,-27.187501907348633 620.6249389648438,-27.1875 620.6249389648438,-27.1875 " stroke="none" fill="none" fill-rule="evenodd" stroke-width="0" fill-opacity="0" />
  <text x="2.7061891555786133" y="15.29671859741211" dx="0" dy="0" font-family="Arial" font-size="7.200000171661381pt" fill="#ADADAD" style="text-anchor:start" font-weight="bold" transform="matrix(0.750000 0.000000 0.000000 0.750000 605.625 -34.6875)">P</text>
  <path d="M620.6249389648438,-27.187501907348633 C620.6249389648438,-23.045368194580078 617.26708984375,-19.687501907348633 613.125,-19.687501907348633 C608.9828491210938,-19.6875 605.625,-23.045360565185547 605.625,-27.187496185302734 L605.6249389648438,-27.1874942779541 C605.6249389648438,-31.32962989807129 608.9828491210938,-34.6875 613.1249389648438,-34.6875 C617.26708984375,-34.68750762939453 620.6249389648438,-31.329648971557617 620.6249389648438,-27.187501907348633 C620.6249389648438,-27.187501907348633 620.6249389648438,-27.1875 620.6249389648438,-27.1875 " stroke="none" fill="none" stroke-width="0.6" stroke-opacity="0" />
  <path d="M55.593746185302734,-15.375001907348633 C55.593746185302734,-11.232867240905762 52.23588180541992,-7.875001907348633 48.09375,-7.875001907348633 C43.95161819458008,-7.875 40.59375,-11.232860565185547 40.59375,-15.374995231628418 L40.593746185302734,-15.374994277954102 C40.59374237060547,-19.51712989807129 43.95160675048828,-22.874998092651367 48.09373474121094,-22.875 C52.235870361328125,-22.87500762939453 55.5937385559082,-19.517148971557617 55.593746185302734,-15.375001907348633 C55.593746185302734,-15.375000953674316 55.593746185302734,-15.375 55.593746185302734,-15.375 " stroke="none" fill="none" fill-rule="evenodd" stroke-width="0" fill-opacity="0" />
  <text x="2.7061891555786133" y="15.29671859741211" dx="0" dy="0" font-family="Arial" font-size="7.200000171661381pt" fill="#ADADAD" style="text-anchor:start" font-weight="bold" transform="matrix(0.750000 0.000000 0.000000 0.750000 40.59375 -22.875)">P</text>
  <path d="M55.593746185302734,-15.375001907348633 C55.593746185302734,-11.232867240905762 52.23588180541992,-7.875001907348633 48.09375,-7.875001907348633 C43.95161819458008,-7.875 40.59375,-11.232860565185547 40.59375,-15.374995231628418 L40.593746185302734,-15.374994277954102 C40.59374237060547,-19.51712989807129 43.95160675048828,-22.874998092651367 48.09373474121094,-22.875 C52.235870361328125,-22.87500762939453 55.5937385559082,-19.517148971557617 55.593746185302734,-15.375001907348633 C55.593746185302734,-15.375000953674316 55.593746185302734,-15.375 55.593746185302734,-15.375 " stroke="none" fill="none" stroke-width="0.6" stroke-opacity="0" />
  <path d="M353.8789367675781,-101.8125 L411.12103271484375,-101.8125 L411.12103271484375,-101.8125 C415.817626953125,-101.81250762939453 419.6249694824219,-98.00517272949219 419.6249694824219,-93.3085708618164 C419.6249694824219,-93.3085708618164 419.6249694824219,-93.30856323242188 419.6249694824219,-93.30856323242188 L419.625,-93.30856323242188 L419.625,-63.066436767578125 L419.6249694824219,-63.066444396972656 C419.6249694824219,-58.369850158691406 415.817626953125,-54.56250762939453 411.12103271484375,-54.562503814697266 L411.12103271484375,-54.5625 L353.8789367675781,-54.5625 L353.8789367675781,-54.562503814697266 C349.1823425292969,-54.5625 345.375,-58.369842529296875 345.375,-63.066436767578125 L345.375,-93.30856323242188 L345.3749694824219,-93.30856323242188 C345.3749694824219,-98.00515747070312 349.18231201171875,-101.8125 353.87890625,-101.81250762939453 " stroke="none" fill="#E7E7E7" fill-rule="evenodd" stroke-width="0" fill-opacity="1" />
  <text x="2.906522274017334" y="35.85334777832031" dx="0" dy="0" font-family="Segoe UI" font-size="7.800000185966496pt" fill="#000000" style="text-anchor:start" transform="matrix(0.750000 0.000000 0.000000 0.750000 345.375 -101.8125)">Hata</text>
  <text x="31.78485679626465" y="35.85334777832031" dx="0" dy="0" font-family="Segoe UI" font-size="7.800000185966496pt" fill="#000000" style="text-anchor:start" transform="matrix(0.750000 0.000000 0.000000 0.750000 345.375 -101.8125)">-</text>
  <text x="34.68385314941406" y="35.85334777832031" dx="0" dy="0" font-family="Segoe UI" font-size="7.800000185966496pt" fill="#000000" style="text-anchor:start" transform="matrix(0.750000 0.000000 0.000000 0.750000 345.375 -101.8125)">Okumura</text>
  <path d="M353.8789367675781,-101.8125 L411.12103271484375,-101.8125 L411.12103271484375,-101.8125 C415.817626953125,-101.81250762939453 419.6249694824219,-98.00517272949219 419.6249694824219,-93.3085708618164 C419.6249694824219,-93.3085708618164 419.6249694824219,-93.30856323242188 419.6249694824219,-93.30856323242188 L419.625,-93.30856323242188 L419.625,-63.066436767578125 L419.6249694824219,-63.066444396972656 C419.6249694824219,-58.369850158691406 415.817626953125,-54.56250762939453 411.12103271484375,-54.562503814697266 L411.12103271484375,-54.5625 L353.8789367675781,-54.5625 L353.8789367675781,-54.562503814697266 C349.1823425292969,-54.5625 345.375,-58.369842529296875 345.375,-63.066436767578125 L345.375,-93.30856323242188 L345.3749694824219,-93.30856323242188 C345.3749694824219,-98.00515747070312 349.18231201171875,-101.8125 353.87890625,-101.81250762939453 " stroke="#000000" fill="none" stroke-width="1" stroke-opacity="1" />
  <path d="M342.3681945800781,-104.6812515258789 L348.3681945800781,-104.6812515258789 L348.3681945800781,-98.6812515258789 L342.3681945800781,-98.6812515258789  z" stroke="none" fill="#FFFFFF" fill-rule="evenodd" stroke-width="0" fill-opacity="1" />
  <path d="M342.3681945800781,-104.6812515258789 L348.3681945800781,-104.6812515258789 L348.3681945800781,-98.6812515258789 L342.3681945800781,-98.6812515258789  z" stroke="#000000" fill="none" stroke-width="0.8" stroke-opacity="1" />
  <path d="M416.7681884765625,-104.6812515258789 L422.1681823730469,-104.6812515258789 L422.1681823730469,-98.6812515258789 L416.7681884765625,-98.6812515258789  z" stroke="none" fill="#FFFFFF" fill-rule="evenodd" stroke-width="0" fill-opacity="1" />
  <path d="M416.7681884765625,-104.6812515258789 L422.1681823730469,-104.6812515258789 L422.1681823730469,-98.6812515258789 L416.7681884765625,-98.6812515258789  z" stroke="#000000" fill="none" stroke-width="0.8" stroke-opacity="1" />
  <path d="M416.7681884765625,-57.28125 L422.1681823730469,-57.28125 L422.1681823730469,-51.88125228881836 L416.7681884765625,-51.88125228881836  z" stroke="none" fill="#FFFFFF" fill-rule="evenodd" stroke-width="0" fill-opacity="1" />
  <path d="M416.7681884765625,-57.28125 L422.1681823730469,-57.28125 L422.1681823730469,-51.88125228881836 L416.7681884765625,-51.88125228881836  z" stroke="#000000" fill="none" stroke-width="0.8" stroke-opacity="1" />
  <path d="M342.3681945800781,-57.28125 L348.3681945800781,-57.28125 L348.3681945800781,-51.88125228881836 L342.3681945800781,-51.88125228881836  z" stroke="none" fill="#FFFFFF" fill-rule="evenodd" stroke-width="0" fill-opacity="1" />
  <path d="M342.3681945800781,-57.28125 L348.3681945800781,-57.28125 L348.3681945800781,-51.88125228881836 L342.3681945800781,-51.88125228881836  z" stroke="#000000" fill="none" stroke-width="0.8" stroke-opacity="1" />
  <path d="M379.5682067871094,-104.6812515258789 L385.5682067871094,-104.6812515258789 L385.5682067871094,-98.6812515258789 L379.5682067871094,-98.6812515258789  z" stroke="none" fill="#FFFFFF" fill-rule="evenodd" stroke-width="0" fill-opacity="1" />
  <path d="M379.5682067871094,-104.6812515258789 L385.5682067871094,-104.6812515258789 L385.5682067871094,-98.6812515258789 L379.5682067871094,-98.6812515258789  z" stroke="#000000" fill="none" stroke-width="0.8" stroke-opacity="1" />
  <path d="M416.7681884765625,-81.28125 L422.1681823730469,-81.28125 L422.1681823730469,-75.28125 L416.7681884765625,-75.28125  z" stroke="none" fill="#FFFFFF" fill-rule="evenodd" stroke-width="0" fill-opacity="1" />
  <path d="M416.7681884765625,-81.28125 L422.1681823730469,-81.28125 L422.1681823730469,-75.28125 L416.7681884765625,-75.28125  z" stroke="#000000" fill="none" stroke-width="0.8" stroke-opacity="1" />
  <path d="M379.5682067871094,-57.28125 L385.5682067871094,-57.28125 L385.5682067871094,-51.88125228881836 L379.5682067871094,-51.88125228881836  z" stroke="none" fill="#FFFFFF" fill-rule="evenodd" stroke-width="0" fill-opacity="1" />
  <path d="M379.5682067871094,-57.28125 L385.5682067871094,-57.28125 L385.5682067871094,-51.88125228881836 L379.5682067871094,-51.88125228881836  z" stroke="#000000" fill="none" stroke-width="0.8" stroke-opacity="1" />
  <path d="M342.3681945800781,-81.28125 L348.3681945800781,-81.28125 L348.3681945800781,-75.28125 L342.3681945800781,-75.28125  z" stroke="none" fill="#FFFFFF" fill-rule="evenodd" stroke-width="0" fill-opacity="1" />
  <path d="M342.3681945800781,-81.28125 L348.3681945800781,-81.28125 L348.3681945800781,-75.28125 L342.3681945800781,-75.28125  z" stroke="#000000" fill="none" stroke-width="0.8" stroke-opacity="1" />
  <path d="M419.625,-78.8062515258789 L440.9748229980469,-79.16207885742188 " stroke="#000000" fill="none" stroke-width="1" stroke-opacity="1" />
  <path d="M446.6740417480469,-79.25707244873047 L441.0118103027344,-76.94239807128906 L440.9378356933594,-81.38177490234375 L446.6740417480469,-79.25707244873047 " stroke="none" fill="#000000" fill-rule="evenodd" stroke-width="0" fill-opacity="1" />
  <path d="M446.6740417480469,-79.25707244873047 L441.0118103027344,-76.94239807128906 L440.9378356933594,-81.38177490234375 L446.6740417480469,-79.25707244873047 " stroke="#000000" fill="none" stroke-width="1" stroke-opacity="1" />
  <path d="M317.79620361328125,-77.83002471923828 L339.6750793457031,-77.9509048461914 " stroke="#000000" fill="none" stroke-width="1" stroke-opacity="1" />
  <path d="M345.375,-77.98239135742188 L339.6873474121094,-75.73094177246094 L339.6628112792969,-80.17086791992188 L345.375,-77.98239135742188 " stroke="none" fill="#000000" fill-rule="evenodd" stroke-width="0" fill-opacity="1" />
  <path d="M345.375,-77.98239135742188 L339.6873474121094,-75.73094177246094 L339.6628112792969,-80.17086791992188 L345.375,-77.98239135742188 " stroke="#000000" fill="none" stroke-width="1" stroke-opacity="1" />
  <path d="M382.5,-31.78125 L382.5,-48.86250305175781 " stroke="#000000" fill="none" stroke-width="1" stroke-opacity="1" />
  <path d="M382.4999694824219,-54.5625 L384.719970703125,-48.86250305175781 L380.2799987792969,-48.86250305175781 L382.4999694824219,-54.5625 " stroke="none" fill="#000000" fill-rule="evenodd" stroke-width="0" fill-opacity="1" />
  <path d="M382.4999694824219,-54.5625 L384.719970703125,-48.86250305175781 L380.2799987792969,-48.86250305175781 L382.4999694824219,-54.5625 " stroke="#000000" fill="none" stroke-width="1" stroke-opacity="1" />
  <path d="M317.79620361328125,-77.83002471923828 L339.6750793457031,-77.9509048461914 " stroke="#000000" fill="none" stroke-width="1" stroke-opacity="1" />
  <path d="M345.375,-77.98239135742188 L339.6873474121094,-75.73094177246094 L339.6628112792969,-80.17086791992188 L345.375,-77.98239135742188 " stroke="none" fill="#000000" fill-rule="evenodd" stroke-width="0" fill-opacity="1" />
  <path d="M345.375,-77.98239135742188 L339.6873474121094,-75.73094177246094 L339.6628112792969,-80.17086791992188 L345.375,-77.98239135742188 " stroke="#000000" fill="none" stroke-width="1" stroke-opacity="1" />
  <path d="M382.5,-31.78125 L382.5,-48.86250305175781 " stroke="#000000" fill="none" stroke-width="1" stroke-opacity="1" />
  <path d="M382.4999694824219,-54.5625 L384.719970703125,-48.86250305175781 L380.2799987792969,-48.86250305175781 L382.4999694824219,-54.5625 " stroke="none" fill="#000000" fill-rule="evenodd" stroke-width="0" fill-opacity="1" />
  <path d="M382.4999694824219,-54.5625 L384.719970703125,-48.86250305175781 L380.2799987792969,-48.86250305175781 L382.4999694824219,-54.5625 " stroke="#000000" fill="none" stroke-width="1" stroke-opacity="1" />
  <path d="M342.6206359863281,-128.78713989257812 L360.3520202636719,-106.28924560546875 " stroke="#000000" fill="none" stroke-width="1" stroke-opacity="1" />
  <path d="M363.8802795410156,-101.8125 L358.6084289550781,-104.91506958007812 L362.0955810546875,-107.66341400146484 L363.8802795410156,-101.8125 " stroke="none" fill="#000000" fill-rule="evenodd" stroke-width="0" fill-opacity="1" />
  <path d="M363.8802795410156,-101.8125 L358.6084289550781,-104.91506958007812 L362.0955810546875,-107.66341400146484 L363.8802795410156,-101.8125 " stroke="#000000" fill="none" stroke-width="1" stroke-opacity="1" />
  <path d="M418.7800598144531,-125.85781860351562 L403.93212890625,-106.34831237792969 " stroke="#000000" fill="none" stroke-width="1" stroke-opacity="1" />
  <path d="M400.4800720214844,-101.8125 L402.1654968261719,-107.69277954101562 L405.69866943359375,-105.00382995605469 L400.4800720214844,-101.8125 " stroke="none" fill="#000000" fill-rule="evenodd" stroke-width="0" fill-opacity="1" />
  <path d="M400.4800720214844,-101.8125 L402.1654968261719,-107.69277954101562 L405.69866943359375,-105.00382995605469 L400.4800720214844,-101.8125 " stroke="#000000" fill="none" stroke-width="1" stroke-opacity="1" />
  <path d="M342.6206359863281,-128.78713989257812 L360.3520202636719,-106.28924560546875 " stroke="#000000" fill="none" stroke-width="1" stroke-opacity="1" />
  <path d="M363.8802795410156,-101.8125 L358.6084289550781,-104.91506958007812 L362.0955810546875,-107.66341400146484 L363.8802795410156,-101.8125 " stroke="none" fill="#000000" fill-rule="evenodd" stroke-width="0" fill-opacity="1" />
  <path d="M363.8802795410156,-101.8125 L358.6084289550781,-104.91506958007812 L362.0955810546875,-107.66341400146484 L363.8802795410156,-101.8125 " stroke="#000000" fill="none" stroke-width="1" stroke-opacity="1" />
  <path d="M418.7800598144531,-125.85781860351562 L403.93212890625,-106.34831237792969 " stroke="#000000" fill="none" stroke-width="1" stroke-opacity="1" />
  <path d="M400.4800720214844,-101.8125 L402.1654968261719,-107.69277954101562 L405.69866943359375,-105.00382995605469 L400.4800720214844,-101.8125 " stroke="none" fill="#000000" fill-rule="evenodd" stroke-width="0" fill-opacity="1" />
  <path d="M400.4800720214844,-101.8125 L402.1654968261719,-107.69277954101562 L405.69866943359375,-105.00382995605469 L400.4800720214844,-101.8125 " stroke="#000000" fill="none" stroke-width="1" stroke-opacity="1" />
  <path d="M342.6206359863281,-128.78713989257812 L360.3520202636719,-106.28924560546875 " stroke="#000000" fill="none" stroke-width="1" stroke-opacity="1" />
  <path d="M363.8802795410156,-101.8125 L358.6084289550781,-104.91506958007812 L362.0955810546875,-107.66341400146484 L363.8802795410156,-101.8125 " stroke="none" fill="#000000" fill-rule="evenodd" stroke-width="0" fill-opacity="1" />
  <path d="M363.8802795410156,-101.8125 L358.6084289550781,-104.91506958007812 L362.0955810546875,-107.66341400146484 L363.8802795410156,-101.8125 " stroke="#000000" fill="none" stroke-width="1" stroke-opacity="1" />
  <path d="M418.7800598144531,-125.85781860351562 L403.93212890625,-106.34831237792969 " stroke="#000000" fill="none" stroke-width="1" stroke-opacity="1" />
  <path d="M400.4800720214844,-101.8125 L402.1654968261719,-107.69277954101562 L405.69866943359375,-105.00382995605469 L400.4800720214844,-101.8125 " stroke="none" fill="#000000" fill-rule="evenodd" stroke-width="0" fill-opacity="1" />
  <path d="M400.4800720214844,-101.8125 L402.1654968261719,-107.69277954101562 L405.69866943359375,-105.00382995605469 L400.4800720214844,-101.8125 " stroke="#000000" fill="none" stroke-width="1" stroke-opacity="1" />
  <path d="M342.6206359863281,-128.78713989257812 L360.3520202636719,-106.28924560546875 " stroke="#000000" fill="none" stroke-width="1" stroke-opacity="1" />
  <path d="M363.8802795410156,-101.8125 L358.6084289550781,-104.91506958007812 L362.0955810546875,-107.66341400146484 L363.8802795410156,-101.8125 " stroke="none" fill="#000000" fill-rule="evenodd" stroke-width="0" fill-opacity="1" />
  <path d="M363.8802795410156,-101.8125 L358.6084289550781,-104.91506958007812 L362.0955810546875,-107.66341400146484 L363.8802795410156,-101.8125 " stroke="#000000" fill="none" stroke-width="1" stroke-opacity="1" />
  <path d="M418.7800598144531,-125.85781860351562 L403.93212890625,-106.34831237792969 " stroke="#000000" fill="none" stroke-width="1" stroke-opacity="1" />
  <path d="M400.4800720214844,-101.8125 L402.1654968261719,-107.69277954101562 L405.69866943359375,-105.00382995605469 L400.4800720214844,-101.8125 " stroke="none" fill="#000000" fill-rule="evenodd" stroke-width="0" fill-opacity="1" />
  <path d="M400.4800720214844,-101.8125 L402.1654968261719,-107.69277954101562 L405.69866943359375,-105.00382995605469 L400.4800720214844,-101.8125 " stroke="#000000" fill="none" stroke-width="1" stroke-opacity="1" />
  <path d="M317.79620361328125,-77.83002471923828 L339.6750793457031,-77.9509048461914 " stroke="#000000" fill="none" stroke-width="1" stroke-opacity="1" />
  <path d="M345.375,-77.98239135742188 L339.6873474121094,-75.73094177246094 L339.6628112792969,-80.17086791992188 L345.375,-77.98239135742188 " stroke="none" fill="#000000" fill-rule="evenodd" stroke-width="0" fill-opacity="1" />
  <path d="M345.375,-77.98239135742188 L339.6873474121094,-75.73094177246094 L339.6628112792969,-80.17086791992188 L345.375,-77.98239135742188 " stroke="#000000" fill="none" stroke-width="1" stroke-opacity="1" />
  <path d="M382.5,-31.78125 L382.5,-48.86250305175781 " stroke="#000000" fill="none" stroke-width="1" stroke-opacity="1" />
  <path d="M382.4999694824219,-54.5625 L384.719970703125,-48.86250305175781 L380.2799987792969,-48.86250305175781 L382.4999694824219,-54.5625 " stroke="none" fill="#000000" fill-rule="evenodd" stroke-width="0" fill-opacity="1" />
  <path d="M382.4999694824219,-54.5625 L384.719970703125,-48.86250305175781 L380.2799987792969,-48.86250305175781 L382.4999694824219,-54.5625 " stroke="#000000" fill="none" stroke-width="1" stroke-opacity="1" />
  <path d="M317.79620361328125,-77.83002471923828 L339.6750793457031,-77.9509048461914 " stroke="#000000" fill="none" stroke-width="1" stroke-opacity="1" />
  <path d="M345.375,-77.98239135742188 L339.6873474121094,-75.73094177246094 L339.6628112792969,-80.17086791992188 L345.375,-77.98239135742188 " stroke="none" fill="#000000" fill-rule="evenodd" stroke-width="0" fill-opacity="1" />
  <path d="M345.375,-77.98239135742188 L339.6873474121094,-75.73094177246094 L339.6628112792969,-80.17086791992188 L345.375,-77.98239135742188 " stroke="#000000" fill="none" stroke-width="1" stroke-opacity="1" />
  <path d="M382.5,-31.78125 L382.5,-48.86250305175781 " stroke="#000000" fill="none" stroke-width="1" stroke-opacity="1" />
  <path d="M382.4999694824219,-54.5625 L384.719970703125,-48.86250305175781 L380.2799987792969,-48.86250305175781 L382.4999694824219,-54.5625 " stroke="none" fill="#000000" fill-rule="evenodd" stroke-width="0" fill-opacity="1" />
  <path d="M382.4999694824219,-54.5625 L384.719970703125,-48.86250305175781 L380.2799987792969,-48.86250305175781 L382.4999694824219,-54.5625 " stroke="#000000" fill="none" stroke-width="1" stroke-opacity="1" />
  <path d="M317.79620361328125,-77.83002471923828 L339.6750793457031,-77.9509048461914 " stroke="#000000" fill="none" stroke-width="1" stroke-opacity="1" />
  <path d="M345.375,-77.98239135742188 L339.6873474121094,-75.73094177246094 L339.6628112792969,-80.17086791992188 L345.375,-77.98239135742188 " stroke="none" fill="#000000" fill-rule="evenodd" stroke-width="0" fill-opacity="1" />
  <path d="M345.375,-77.98239135742188 L339.6873474121094,-75.73094177246094 L339.6628112792969,-80.17086791992188 L345.375,-77.98239135742188 " stroke="#000000" fill="none" stroke-width="1" stroke-opacity="1" />
  <text x="413.19232177734375" y="-88.66349029541016" dx="0" dy="0" font-family="Arial" font-size="7.800000185966496pt" fill="#000000" style="text-anchor:start" transform="matrix(0.750000 0.000000 0.000000 0.750000 0 0)">Bad Link</text>
  <path d="M342.6206359863281,-128.78713989257812 L360.3520202636719,-106.28924560546875 " stroke="#000000" fill="none" stroke-width="1" stroke-opacity="1" />
  <path d="M363.8802795410156,-101.8125 L358.6084289550781,-104.91506958007812 L362.0955810546875,-107.66341400146484 L363.8802795410156,-101.8125 " stroke="none" fill="#000000" fill-rule="evenodd" stroke-width="0" fill-opacity="1" />
  <path d="M363.8802795410156,-101.8125 L358.6084289550781,-104.91506958007812 L362.0955810546875,-107.66341400146484 L363.8802795410156,-101.8125 " stroke="#000000" fill="none" stroke-width="1" stroke-opacity="1" />
  <text x="442.0787658691406" y="-138.5216522216797" dx="0" dy="0" font-family="Arial" font-size="7.800000185966496pt" fill="#000000" style="text-anchor:start" transform="matrix(0.750000 0.000000 0.000000 0.750000 0 0)">Bad Link</text>
  <path d="M418.7800598144531,-125.85781860351562 L403.93212890625,-106.34831237792969 " stroke="#000000" fill="none" stroke-width="1" stroke-opacity="1" />
  <path d="M400.4800720214844,-101.8125 L402.1654968261719,-107.69277954101562 L405.69866943359375,-105.00382995605469 L400.4800720214844,-101.8125 " stroke="none" fill="#000000" fill-rule="evenodd" stroke-width="0" fill-opacity="1" />
  <path d="M400.4800720214844,-101.8125 L402.1654968261719,-107.69277954101562 L405.69866943359375,-105.00382995605469 L400.4800720214844,-101.8125 " stroke="#000000" fill="none" stroke-width="1" stroke-opacity="1" />
  <text x="517.2516479492188" y="-136.5687713623047" dx="0" dy="0" font-family="Arial" font-size="7.800000185966496pt" fill="#000000" style="text-anchor:start" transform="matrix(0.750000 0.000000 0.000000 0.750000 0 0)">Bad Link</text>
  <path d="M342.6206359863281,-128.78713989257812 L360.3520202636719,-106.28924560546875 " stroke="#000000" fill="none" stroke-width="1" stroke-opacity="1" />
  <path d="M363.8802795410156,-101.8125 L358.6084289550781,-104.91506958007812 L362.0955810546875,-107.66341400146484 L363.8802795410156,-101.8125 " stroke="none" fill="#000000" fill-rule="evenodd" stroke-width="0" fill-opacity="1" />
  <path d="M363.8802795410156,-101.8125 L358.6084289550781,-104.91506958007812 L362.0955810546875,-107.66341400146484 L363.8802795410156,-101.8125 " stroke="#000000" fill="none" stroke-width="1" stroke-opacity="1" />
  <text x="442.0787658691406" y="-138.5216522216797" dx="0" dy="0" font-family="Arial" font-size="7.800000185966496pt" fill="#000000" style="text-anchor:start" transform="matrix(0.750000 0.000000 0.000000 0.750000 0 0)">Bad Link</text>
  <path d="M418.7800598144531,-125.85781860351562 L403.93212890625,-106.34831237792969 " stroke="#000000" fill="none" stroke-width="1" stroke-opacity="1" />
  <path d="M400.4800720214844,-101.8125 L402.1654968261719,-107.69277954101562 L405.69866943359375,-105.00382995605469 L400.4800720214844,-101.8125 " stroke="none" fill="#000000" fill-rule="evenodd" stroke-width="0" fill-opacity="1" />
  <path d="M400.4800720214844,-101.8125 L402.1654968261719,-107.69277954101562 L405.69866943359375,-105.00382995605469 L400.4800720214844,-101.8125 " stroke="#000000" fill="none" stroke-width="1" stroke-opacity="1" />
  <text x="517.2516479492188" y="-136.5687713623047" dx="0" dy="0" font-family="Arial" font-size="7.800000185966496pt" fill="#000000" style="text-anchor:start" transform="matrix(0.750000 0.000000 0.000000 0.750000 0 0)">Bad Link</text>
  <path d="M317.79620361328125,-77.83002471923828 L339.6750793457031,-77.9509048461914 " stroke="#000000" fill="none" stroke-width="1" stroke-opacity="1" />
  <path d="M345.375,-77.98239135742188 L339.6873474121094,-75.73094177246094 L339.6628112792969,-80.17086791992188 L345.375,-77.98239135742188 " stroke="none" fill="#000000" fill-rule="evenodd" stroke-width="0" fill-opacity="1" />
  <path d="M345.375,-77.98239135742188 L339.6873474121094,-75.73094177246094 L339.6628112792969,-80.17086791992188 L345.375,-77.98239135742188 " stroke="#000000" fill="none" stroke-width="1" stroke-opacity="1" />
  <text x="413.19232177734375" y="-88.66349029541016" dx="0" dy="0" font-family="Arial" font-size="7.800000185966496pt" fill="#000000" style="text-anchor:start" transform="matrix(0.750000 0.000000 0.000000 0.750000 0 0)">Bad Link</text>
</svg>